<svg xmlns="http://www.w3.org/2000/svg" xmlns:xlink="http://www.w3.org/1999/xlink" viewBox="0,0,256,256" width="48px" height="48px" fill-rule="nonzero"><defs><linearGradient x1="10.341" y1="8.312" x2="40.798" y2="38.769" gradientUnits="userSpaceOnUse" id="color-1"><stop offset="0" stop-color="#2aa4f4"></stop><stop offset="1" stop-color="#007ad9"></stop></linearGradient></defs><g fill="url(#color-1)" fill-rule="nonzero" stroke="none" stroke-width="1" stroke-linecap="butt" stroke-linejoin="miter" stroke-miterlimit="10" stroke-dasharray="" stroke-dashoffset="0" font-family="none" font-weight="none" font-size="none" text-anchor="none" style="mix-blend-mode: normal"><g transform="translate(248.98953,225.88306) rotate(-180) scale(5.33333,5.33333)"><path d="M46.105,11.02c-1.551,0.687 -3.219,1.145 -4.979,1.362c1.789,-1.062 3.166,-2.756 3.812,-4.758c-1.674,0.981 -3.529,1.702 -5.502,2.082c-1.576,-1.67 -3.824,-2.706 -6.314,-2.706c-4.783,0 -8.661,3.843 -8.661,8.582c0,0.671 0.079,1.324 0.226,1.958c-7.196,-0.361 -13.579,-3.782 -17.849,-8.974c-0.75,1.269 -1.172,2.754 -1.172,4.322c0,2.979 1.525,5.602 3.851,7.147c-1.42,-0.043 -2.756,-0.438 -3.926,-1.072c0,0.026 0,0.064 0,0.101c0,4.163 2.986,7.63 6.944,8.419c-0.723,0.198 -1.488,0.308 -2.276,0.308c-0.559,0 -1.104,-0.063 -1.632,-0.158c1.102,3.402 4.299,5.889 8.087,5.963c-2.964,2.298 -6.697,3.674 -10.756,3.674c-0.701,0 -1.387,-0.04 -2.065,-0.122c3.837,2.429 8.39,3.852 13.278,3.852c15.927,0 24.641,-13.079 24.641,-24.426c0,-0.372 -0.012,-0.742 -0.029,-1.108c1.7,-1.201 3.165,-2.715 4.322,-4.446"></path></g></g><g fill="#fa5252" fill-rule="nonzero" stroke="none" stroke-width="1" stroke-linecap="butt" stroke-linejoin="miter" stroke-miterlimit="10" stroke-dasharray="" stroke-dashoffset="0" font-family="none" font-weight="none" font-size="none" text-anchor="none" style="mix-blend-mode: normal"><g><path d="M77.43167,203.85333v3.16h-5.8v15.8h-3.91v-15.8h-5.73v-3.16zM91.51167,203.85333l3.11,13.49l2.55,-13.49h3.9l-4.21,18.96h-3.93l-3.09,-12.69l-3.08,12.69h-3.94l-4.2,-18.96h3.89l2.57,13.46l3.12,-13.46zM114.63167,222.81333l-1.31,-3.91h-6.85l-1.3,3.91h-4.16l7.06,-18.96h3.62l7.1,18.96zM109.88167,208.64333l-2.36,7.1h4.74zM133.27167,203.85333v3.16h-5.81v15.8h-3.91v-15.8h-5.73v-3.16zM149.97167,203.85333v3.16h-5.8v15.8h-3.91v-15.8h-5.73v-3.16zM162.65167,222.81333l-1.31,-3.91h-6.85l-1.3,3.91h-4.15l7.05,-18.96h3.62l7.1,18.96zM157.90167,208.64333l-2.35,7.1h4.74zM179.15167,222.81333l-3.55,-6.94h-3.11v6.94h-3.91v-18.96h7.04c2.24,0 3.97,0.5 5.19,1.5c1.21333,0.99333 1.82,2.40333 1.82,4.23v0c0,1.29333 -0.28,2.37 -0.84,3.23c-0.56,0.86667 -1.41,1.55667 -2.55,2.07v0l4.1,7.74v0.19zM172.49167,207.01333v5.69h3.15c0.98,0 1.74,-0.25 2.28,-0.75c0.53333,-0.49333 0.8,-1.18 0.8,-2.06v0c0,-0.89333 -0.25333,-1.59667 -0.76,-2.11c-0.50667,-0.51333 -1.28667,-0.77 -2.34,-0.77v0z"></path></g></g></svg>